<svg xmlns="http://www.w3.org/2000/svg" width="64" height="64" viewBox="0 0 64 64" fill="none">
  <defs>
    <linearGradient id="grad" x1="0" x2="0" y1="0" y2="1">
      <stop offset="0%" stop-color="#ff91a4" />
      <stop offset="100%" stop-color="#ff5e78" />
    </linearGradient>
  </defs>
  <rect width="64" height="64" rx="12" fill="#ffffff"/>
  <g transform="translate(16,12)">
    <path d="M16 0c6.627 0 12 5.373 12 12 0 1.657-.343 3.232-.964 4.665l-1.498 3.53H6.462l-1.498-3.53A11.97 11.97 0 0 1 4 12C4 5.373 9.373 0 16 0Z" fill="url(#grad)"/>
    <path d="M10 22h12l-6 18c-2.209 0-4-1.791-4-4l-2-14Z" fill="#D0A87B"/>
    <circle cx="12" cy="10" r="2" fill="#fff" opacity="0.8"/>
    <circle cx="20" cy="8" r="1.5" fill="#fff" opacity="0.8"/>
  </g>
</svg>